<svg xmlns="http://www.w3.org/2000/svg" viewBox="0 0 915.52 439.39"><title>78786 [Converted]</title><g id="Shadow"><g style="opacity:0.18"><rect x="250.09" y="315.24" width="40.4" height="77.59" style="fill:#b5c3c2"/><rect x="256.69" y="365.79" width="27.2" height="32.6" style="fill:#b5c3c2"/><rect x="262.74" y="383.83" width="15.09" height="18.08" style="fill:#b5c3c2"/><polygon points="275.43 392.63 265.14 392.63 265.14 404.95 268.85 404.95 272.53 404.95 275.43 404.95 275.43 392.63" style="fill:#b5c3c2"/><polygon points="269.61 397.99 268.49 397.99 268.49 410.32 268.89 410.32 269.29 410.32 269.61 410.32 269.61 397.99" style="fill:#b5c3c2"/><polygon points="272.08 402.25 270.96 402.25 270.96 414.58 271.36 414.58 271.76 414.58 272.08 414.58 272.08 402.25" style="fill:#b5c3c2"/><rect x="249.01" y="392.2" width="42.55" height="0.83" style="fill:#b5c3c2"/><rect x="255.69" y="397.99" width="29.18" height="0.8" style="fill:#b5c3c2"/><rect x="261.64" y="401.64" width="16.82" height="0.61" style="fill:#b5c3c2"/><rect x="259.19" y="393.65" width="1.26" height="3.42" style="fill:#b5c3c2;opacity:0.29"/><rect x="262.69" y="393.65" width="1.26" height="3.42" style="fill:#b5c3c2;opacity:0.29"/><rect x="266.18" y="393.65" width="1.26" height="3.42" style="fill:#b5c3c2;opacity:0.29"/><rect x="269.68" y="393.65" width="1.26" height="3.42" style="fill:#b5c3c2;opacity:0.29"/><rect x="273.18" y="393.65" width="1.26" height="3.42" style="fill:#b5c3c2;opacity:0.29"/><rect x="276.68" y="393.65" width="1.26" height="3.42" style="fill:#b5c3c2;opacity:0.29"/><rect x="280.18" y="393.65" width="1.26" height="3.42" style="fill:#b5c3c2;opacity:0.29"/><rect x="253.63" y="385.68" width="3.06" height="4.05" style="fill:#b5c3c2"/><rect x="259.68" y="385.68" width="3.06" height="4.05" style="fill:#b5c3c2;opacity:0.29"/><rect x="265.73" y="385.68" width="3.06" height="4.05" style="fill:#b5c3c2"/><rect x="271.78" y="385.68" width="3.06" height="4.05" style="fill:#b5c3c2"/><rect x="277.83" y="385.68" width="3.05" height="4.05" style="fill:#b5c3c2"/><rect x="283.88" y="385.68" width="3.05" height="4.05" style="fill:#b5c3c2"/><rect x="253.63" y="379.36" width="3.06" height="4.05" style="fill:#b5c3c2"/><rect x="259.68" y="379.36" width="3.06" height="4.05" style="fill:#b5c3c2"/><rect x="265.73" y="379.36" width="3.06" height="4.05" style="fill:#b5c3c2"/><rect x="271.78" y="379.36" width="3.06" height="4.05" style="fill:#b5c3c2;opacity:0.29"/><rect x="277.83" y="379.36" width="3.05" height="4.05" style="fill:#b5c3c2"/><rect x="283.88" y="379.36" width="3.05" height="4.05" style="fill:#b5c3c2"/><rect x="253.63" y="373.05" width="3.06" height="4.05" style="fill:#b5c3c2"/><rect x="259.68" y="373.05" width="3.06" height="4.05" style="fill:#b5c3c2"/><rect x="265.73" y="373.05" width="3.06" height="4.05" style="fill:#b5c3c2"/><rect x="271.78" y="373.05" width="3.06" height="4.05" style="fill:#b5c3c2"/><rect x="277.83" y="373.05" width="3.05" height="4.05" style="fill:#b5c3c2;opacity:0.29"/><rect x="283.88" y="373.05" width="3.05" height="4.05" style="fill:#b5c3c2;opacity:0.29"/><rect x="253.63" y="366.73" width="3.06" height="4.05" style="fill:#b5c3c2;opacity:0.29"/><rect x="259.68" y="366.73" width="3.06" height="4.05" style="fill:#b5c3c2"/><rect x="265.73" y="366.73" width="3.06" height="4.05" style="fill:#b5c3c2"/><rect x="271.78" y="366.73" width="3.06" height="4.05" style="fill:#b5c3c2"/><rect x="277.83" y="366.73" width="3.05" height="4.05" style="fill:#b5c3c2"/><rect x="283.88" y="366.73" width="3.05" height="4.05" style="fill:#b5c3c2"/><rect x="253.63" y="360.41" width="3.06" height="4.05" style="fill:#b5c3c2"/><rect x="259.68" y="360.41" width="3.06" height="4.05" style="fill:#b5c3c2;opacity:0.29"/><rect x="265.73" y="360.41" width="3.06" height="4.05" style="fill:#b5c3c2"/><rect x="271.78" y="360.41" width="3.06" height="4.05" style="fill:#b5c3c2;opacity:0.29"/><rect x="277.83" y="360.41" width="3.05" height="4.05" style="fill:#b5c3c2"/><rect x="283.88" y="360.41" width="3.05" height="4.05" style="fill:#b5c3c2"/><rect x="253.63" y="354.09" width="3.06" height="4.05" style="fill:#b5c3c2"/><rect x="259.68" y="354.09" width="3.06" height="4.05" style="fill:#b5c3c2"/><rect x="265.73" y="354.09" width="3.06" height="4.05" style="fill:#b5c3c2"/><rect x="271.78" y="354.09" width="3.06" height="4.05" style="fill:#b5c3c2"/><rect x="277.83" y="354.09" width="3.05" height="4.05" style="fill:#b5c3c2"/><rect x="283.88" y="354.09" width="3.05" height="4.05" style="fill:#b5c3c2;opacity:0.29"/><rect x="253.63" y="347.77" width="3.06" height="4.05" style="fill:#b5c3c2"/><rect x="259.68" y="347.77" width="3.06" height="4.05" style="fill:#b5c3c2;opacity:0.29"/><rect x="265.73" y="347.77" width="3.06" height="4.05" style="fill:#b5c3c2;opacity:0.29"/><rect x="271.78" y="347.77" width="3.06" height="4.05" style="fill:#b5c3c2"/><rect x="277.83" y="347.77" width="3.05" height="4.05" style="fill:#b5c3c2"/><rect x="283.88" y="347.77" width="3.05" height="4.05" style="fill:#b5c3c2"/><rect x="253.63" y="341.46" width="3.06" height="4.05" style="fill:#b5c3c2"/><rect x="259.68" y="341.46" width="3.06" height="4.05" style="fill:#b5c3c2"/><rect x="265.73" y="341.46" width="3.06" height="4.05" style="fill:#b5c3c2"/><rect x="271.78" y="341.46" width="3.06" height="4.05" style="fill:#b5c3c2"/><rect x="277.83" y="341.46" width="3.05" height="4.05" style="fill:#b5c3c2;opacity:0.29"/><rect x="283.88" y="341.46" width="3.05" height="4.05" style="fill:#b5c3c2"/><rect x="253.63" y="335.14" width="3.06" height="4.05" style="fill:#b5c3c2"/><rect x="259.68" y="335.14" width="3.06" height="4.05" style="fill:#b5c3c2;opacity:0.29"/><rect x="265.73" y="335.14" width="3.06" height="4.05" style="fill:#b5c3c2"/><rect x="271.78" y="335.14" width="3.06" height="4.05" style="fill:#b5c3c2"/><rect x="277.83" y="335.14" width="3.05" height="4.05" style="fill:#b5c3c2"/><rect x="283.88" y="335.14" width="3.05" height="4.05" style="fill:#b5c3c2"/><rect x="253.63" y="328.82" width="3.06" height="4.05" style="fill:#b5c3c2"/><rect x="259.68" y="328.82" width="3.06" height="4.05" style="fill:#b5c3c2"/><rect x="265.73" y="328.82" width="3.06" height="4.05" style="fill:#b5c3c2"/><rect x="271.78" y="328.82" width="3.06" height="4.05" style="fill:#b5c3c2;opacity:0.29"/><rect x="277.83" y="328.82" width="3.05" height="4.05" style="fill:#b5c3c2"/><rect x="283.88" y="328.82" width="3.05" height="4.05" style="fill:#b5c3c2;opacity:0.29"/><rect x="253.63" y="322.5" width="3.06" height="4.05" style="fill:#b5c3c2;opacity:0.29"/><rect x="259.68" y="322.5" width="3.06" height="4.05" style="fill:#b5c3c2"/><rect x="265.73" y="322.5" width="3.06" height="4.05" style="fill:#b5c3c2;opacity:0.29"/><rect x="271.78" y="322.5" width="3.06" height="4.05" style="fill:#b5c3c2"/><rect x="277.83" y="322.5" width="3.05" height="4.05" style="fill:#b5c3c2"/><rect x="283.88" y="322.5" width="3.05" height="4.05" style="fill:#b5c3c2"/><rect x="132.76" y="324.52" width="64.94" height="65.36" style="fill:#b5c3c2"/><rect x="130.91" y="389.15" width="68.63" height="1.85" style="fill:#b5c3c2"/><rect x="134.94" y="384.58" width="60.58" height="8.78" style="fill:#b5c3c2"/><rect x="139.58" y="387.36" width="23.99" height="9.59" style="fill:#b5c3c2"/><polygon points="153.46 394.25 139.58 394.25 139.58 399.3 149.53 399.3 153.46 394.25" style="fill:#b5c3c2"/><rect x="145.17" y="392.25" width="1.35" height="11.25" style="fill:#b5c3c2"/><ellipse cx="145.84" cy="404.08" rx="1.21" ry="0.58" style="fill:#b5c3c2"/><polygon points="735.49 319.54 664.4 319.54 655.53 415.64 735.49 407.63 735.49 319.54" style="fill:#b5c3c2"/><polygon points="425.34 374.42 425.34 406.55 414.19 406.55 414.19 415.15 410.21 415.15 410.21 427.78 388.26 427.78 388.26 437.05 386.31 437.05 386.31 427.78 382.01 427.78 382.01 439.39 380.06 439.39 380.06 427.78 366.19 427.78 366.19 406.55 359.02 406.55 359.02 374.42 352.88 374.42 352.88 315.9 429.66 315.9 429.66 374.42 425.34 374.42" style="fill:#b5c3c2"/><rect x="41.99" y="310.99" width="849.37" height="9.75" style="fill:#b5c3c2"/><polygon points="541.96 313.38 504.35 313.38 519 349.71 541.96 349.71 541.96 313.38" style="fill:#95a9a7"/><rect x="11.52" y="296.59" width="891.8" height="15.37" style="fill:#95a9a7"/><polygon points="511.14 380.62 511.14 396.72 499.06 396.72 499.06 402.85 492.6 402.85 492.6 408 490.33 408 490.33 416.83 489.75 416.83 489.75 408 487.48 408 487.48 402.85 481.02 402.85 481.02 396.72 469.03 396.72 469.03 380.62 466.54 380.62 466.54 351.38 447.96 351.38 447.96 318.06 466.54 318.06 485.12 318.06 513.54 318.06 513.54 380.62 511.14 380.62" style="fill:#95a9a7"/><polygon points="580.54 362.12 522.09 362.12 522.09 361.61 524.73 361.61 524.73 313.92 577.9 313.92 577.9 361.61 580.54 361.61 580.54 362.12" style="fill:#95a9a7"/><rect x="262.17" y="310.52" width="51.83" height="39.73" style="fill:#95a9a7"/><rect x="165.23" y="310.52" width="89.13" height="19.37" style="fill:#95a9a7"/><rect x="213" y="325.6" width="19.57" height="47.57" style="fill:#95a9a7"/><rect x="217.32" y="359.99" width="1.02" height="25.87" style="fill:#95a9a7"/><rect x="220.63" y="358.03" width="1.02" height="25.87" style="fill:#95a9a7"/><rect x="214.51" y="369.74" width="11.96" height="6.38" style="fill:#95a9a7"/><rect x="250.87" y="310.52" width="34.05" height="32.61" style="fill:#95a9a7"/><rect x="322.39" y="310.52" width="63.92" height="67.13" style="fill:#95a9a7"/><rect x="328.67" y="368.77" width="51.36" height="11.18" style="fill:#95a9a7"/><rect x="317.44" y="375.46" width="73.83" height="0.78" style="fill:#95a9a7"/><rect x="310.81" y="310.52" width="30.12" height="33.9" style="fill:#95a9a7"/><rect x="95.09" y="310.52" width="34.56" height="35.19" style="fill:#95a9a7"/><rect x="106.27" y="310.52" width="68.87" height="44.75" style="fill:#95a9a7"/><rect x="102.25" y="355.27" width="74.66" height="1.72" style="fill:#95a9a7"/><rect x="109.32" y="352.57" width="30.26" height="9.07" style="fill:#95a9a7"/><rect x="149.47" y="356.13" width="5.08" height="5.52" style="fill:#95a9a7"/><rect x="159.64" y="356.13" width="5.59" height="5.52" style="fill:#95a9a7"/><rect x="76.28" y="310.52" width="36.09" height="13.61" style="fill:#95a9a7"/><rect x="62.66" y="310.52" width="17.09" height="19.37" style="fill:#95a9a7"/><rect x="41.99" y="310.52" width="29.2" height="6.8" style="fill:#95a9a7"/><rect x="380.03" y="310.52" width="359.85" height="15.08" style="fill:#95a9a7"/><path d="M715.47,365.26c0-1.15-1.93-2.09-4.32-2.09s-4.26.91-4.32,2l-5.07.08a15.92,15.92,0,0,0-4.74-9.72l4.65-1c.61.79,2.19,1.35,4,1.35,2.39,0,4.33-.93,4.33-2.08s-1.94-2.09-4.33-2.09-4.32.94-4.32,2.09a1.17,1.17,0,0,0,.13.51l-4.7,1.05a37.5,37.5,0,0,0-10.63-7.3l-1.07-.5,4.26-2.19a7.67,7.67,0,0,0,2.46.37c2.39,0,4.32-.93,4.32-2.08s-1.93-2.09-4.32-2.09-4.32.93-4.32,2.09c0,.62.57,1.19,1.48,1.57l-4.23,2.17a70.3,70.3,0,0,0-9.73-3.47l26.07-23.19h4.68v-.66h2.29v-1.32H588.94v1.32h2.3v.66h4.68L622,343.92a68,68,0,0,0-11.16,4.13l-1,.52-3.31-1.5a1.67,1.67,0,0,0,1-1.34c0-1.15-1.93-2.08-4.32-2.08s-4.32.93-4.32,2.08,1.93,2.09,4.32,2.09a7.22,7.22,0,0,0,3-.58l3.32,1.5a32.47,32.47,0,0,0-10.9,8.5l-4.23-.75a1.17,1.17,0,0,0,.18-.62c0-1.15-1.93-2.08-4.32-2.08s-4.32.93-4.32,2.08,1.93,2.09,4.32,2.09a5.62,5.62,0,0,0,4-1.26l4.23.75a14.57,14.57,0,0,0-3.17,8.78c0,.24,0,.48,0,.72l-5.15.08c-.19-1.07-2.05-1.91-4.31-1.91s-4.33.93-4.33,2.09,1.94,2.08,4.33,2.08,4.25-.9,4.32-2l5.15-.08a16,16,0,0,0,4.75,9.73l-4,.89a5.78,5.78,0,0,0-3.93-1.21c-2.38,0-4.32.94-4.32,2.09s1.94,2.08,4.32,2.08,4.33-.93,4.33-2.08a1.15,1.15,0,0,0-.23-.67l4-.89a37.22,37.22,0,0,0,10.62,7.29l1.07.5-3.15,1.63a7.46,7.46,0,0,0-2.84-.52c-2.39,0-4.33.94-4.33,2.09s1.94,2.09,4.33,2.09,4.32-.94,4.32-2.09c0-.54-.43-1-1.14-1.41l3.16-1.63a76.3,76.3,0,0,0,18.31,5.38l-1.74,2.39a9.14,9.14,0,0,0-1.19-.08c-2.39,0-4.32.94-4.32,2.09s1.93,2.08,4.32,2.08S632,396,632,394.85c0-.87-1.1-1.62-2.68-1.93l1.75-2.39a106.26,106.26,0,0,0,17.49,1.41H650l.2,2.94c-2.09.14-3.71,1-3.71,2.06s1.94,2.09,4.33,2.09,4.32-.93,4.32-2.09-1.93-2.08-4.32-2.08h-.14l-.2-2.93a103.13,103.13,0,0,0,18.06-1.85l1.82,2.14c-1.51.32-2.57,1.05-2.57,1.9,0,1.15,1.94,2.09,4.33,2.09s4.32-.94,4.32-2.09-1.93-2.08-4.32-2.08a9.09,9.09,0,0,0-1.31.09L669,390a72.48,72.48,0,0,0,17.2-5.57l1-.51,3.31,1.49a1.69,1.69,0,0,0-1,1.34c0,1.16,1.94,2.09,4.33,2.09s4.32-.93,4.32-2.09-1.94-2.08-4.32-2.08a7.48,7.48,0,0,0-3,.57l-3.31-1.49a32.57,32.57,0,0,0,10.9-8.5l4.23.75a1.15,1.15,0,0,0-.19.61c0,1.15,1.94,2.09,4.32,2.09s4.33-.94,4.33-2.09-1.94-2.08-4.33-2.08a5.61,5.61,0,0,0-4,1.25l-4.24-.75a14.52,14.52,0,0,0,3.18-8.78c0-.24,0-.48,0-.72l5.06-.08c.19,1.07,2,1.92,4.31,1.92S715.47,366.41,715.47,365.26Zm-18.2,9.51-14-2.49a10,10,0,0,0,2.19-6c0-.15,0-.31,0-.46l14.92-.23c0,.23,0,.46,0,.69A14.12,14.12,0,0,1,697.27,374.77Zm-12.56-8.54a9.83,9.83,0,0,1-2.15,5.93l-31.25-5.55a.72.72,0,0,0,.11-.31l33.28-.52C684.7,365.93,684.71,366.08,684.71,366.23Zm-72.39,0a9.79,9.79,0,0,1,2.14-5.92l31.25,5.55a.71.71,0,0,0-.1.3l-33.28.52C612.32,366.53,612.32,366.38,612.32,366.23Zm38.83.59,31.25,5.56a22.32,22.32,0,0,1-7.33,5.7l-24.28-11A1.72,1.72,0,0,0,651.15,366.82Zm23.6,11.43a48.13,48.13,0,0,1-12.27,4.09l-12.64-14.86a3,3,0,0,0,.62-.21ZM662,382.43a70,70,0,0,1-12.11,1.25l-1.08-16.05a4.69,4.69,0,0,0,.54-.06Zm-12.59,1.26h-.94a71.65,71.65,0,0,1-11.8-1l11.07-15.15a5.47,5.47,0,0,0,.59,0Zm-13.2-1a53.22,53.22,0,0,1-12.3-3.62l22.76-11.72a4.42,4.42,0,0,0,.61.18Zm-12.65-3.78a26.44,26.44,0,0,1-7.85-5.23L646,366.92a1.79,1.79,0,0,0,.38.25Zm-8.05-5.44a10.83,10.83,0,0,1-3.2-6.53l33.27-.53a.81.81,0,0,0,.16.32Zm-.92-13.36a22.43,22.43,0,0,1,7.32-5.71l24,10.86.2.17a1.32,1.32,0,0,0-.28.23Zm7.65-5.88a44.64,44.64,0,0,1,7.88-3l15.07,13.4ZM631,351c1.15-.31,2.33-.59,3.55-.84L647.19,365l-.32.1Zm4-.92a69.75,69.75,0,0,1,12.11-1.26l1.08,16.06a4.87,4.87,0,0,0-.55.06Zm25.33-.32-11.07,15.16a5.63,5.63,0,0,0-.59-.05l-1.08-16.06h.93A72.91,72.91,0,0,1,660.32,349.72Zm.45.08c1.83.32,3.59.71,5.26,1.16l-15.87,14.12-.46-.13Zm6.1,1.39a45,45,0,0,1,6.2,2.23l-20.7,10.66Zm6.56,2.39a26.2,26.2,0,0,1,7.84,5.23L651,365.54l-.17-.13.6-.53Zm8,5.44a10.82,10.82,0,0,1,3.21,6.53l-33.28.52a.88.88,0,0,0-.16-.32Zm-50.82-8.37-7.14-6.34c1.65-.44,3.34-.84,5.08-1.18l5.68,6.67C633,350.05,631.82,350.34,630.65,350.65ZM629,343a100.6,100.6,0,0,1,17.56-1.8l.48,7.2a71.8,71.8,0,0,0-12.36,1.27Zm18-1.81h1.44a103.93,103.93,0,0,1,17,1.37l-5,6.81a72.42,72.42,0,0,0-12-1h-1ZM666,342.67c2.6.45,5.11,1,7.53,1.64l-7.13,6.34c-1.71-.46-3.51-.85-5.37-1.18Zm20.53,40.58-10.91-4.93a22.77,22.77,0,0,0,7.47-5.82l14,2.49A31.74,31.74,0,0,1,686.51,383.25Zm-18.07,6.09-5.68-6.68a49.36,49.36,0,0,0,12.51-4.17l10.91,4.93-1,.5A70.79,70.79,0,0,1,668.44,389.34Zm-18,1.89L650,384a71.57,71.57,0,0,0,12.36-1.28l5.68,6.68A101.45,101.45,0,0,1,650.44,391.23Zm-18.94-1.36,5-6.8a73.4,73.4,0,0,0,12,1h1l.49,7.2h-1.45A102.79,102.79,0,0,1,631.5,389.87Zm-18.26-5.31,10.22-5.26A53.62,53.62,0,0,0,636,383l-5,6.81A74.88,74.88,0,0,1,613.24,384.56Zm-11.72-7.73,13.58-3a26.57,26.57,0,0,0,8,5.34l-10.22,5.27-1-.49A36.3,36.3,0,0,1,601.52,376.83Zm-4.82-9.67,14.93-.23a11,11,0,0,0,3.27,6.66l-13.58,3A15.55,15.55,0,0,1,596.7,367.16Zm3-9.46,14,2.49a10,10,0,0,0-2.19,6c0,.16,0,.31,0,.47l-14.92.23c0-.23,0-.46,0-.7A14.17,14.17,0,0,1,599.75,357.7Zm10.77-8.49,10.9,4.94A22.74,22.74,0,0,0,614,360l-14-2.49A31.53,31.53,0,0,1,610.52,349.21Zm12.16-4.68,7.13,6.35a44.83,44.83,0,0,0-8.06,3.1l-10.9-4.93c.33-.17.66-.34,1-.5A64.74,64.74,0,0,1,622.68,344.53Zm51.52-.84q-3.74-1-7.74-1.68l1.55-2.12a7.64,7.64,0,0,0,1.38.11c2.39,0,4.33-.93,4.33-2.08s-1.94-2.09-4.33-2.09-4.32.94-4.32,2.09c0,.83,1,1.56,2.49,1.89L666,341.94a106.37,106.37,0,0,0-17.5-1.42H647l-.15-2.18c2.21-.1,4-1,4-2.08s-1.94-2.09-4.33-2.09-4.32.94-4.32,2.09,1.88,2.06,4.22,2.08l.15,2.19a104.3,104.3,0,0,0-18.06,1.85l-1.81-2.13c1.51-.32,2.56-1.06,2.56-1.91,0-1.15-1.93-2.08-4.32-2.08s-4.33.93-4.33,2.08,1.94,2.09,4.33,2.09a8,8,0,0,0,1.31-.1l1.82,2.14q-2.67.54-5.21,1.21l-25.82-23H700Zm9.59,4.21-10.22,5.26a48.2,48.2,0,0,0-6.36-2.28l7.14-6.35A68.36,68.36,0,0,1,683.79,347.9Zm11.72,7.74-13.59,3a26.75,26.75,0,0,0-8-5.34l10.22-5.26,1,.49A36.36,36.36,0,0,1,695.51,355.64Zm4.81,9.66-14.92.24a11.1,11.1,0,0,0-3.27-6.67l13.58-3A15.54,15.54,0,0,1,700.32,365.3Z" style="fill:#95a9a7"/><rect x="721.59" y="310.52" width="55.57" height="39.28" style="fill:#95a9a7"/><rect x="769.02" y="310.74" width="55.57" height="23.79" style="fill:#95a9a7"/><rect x="553.53" y="318.06" width="31.17" height="19.96" style="fill:#95a9a7"/><rect x="749.37" y="310.52" width="39.3" height="76.64" style="fill:#95a9a7"/><polygon points="853.39 310.52 801.55 310.52 801.55 355.27 840.86 355.27 853.39 310.52" style="fill:#95a9a7"/><rect x="830.69" y="310.52" width="45.4" height="10.22" style="fill:#95a9a7"/><rect x="778.51" y="382.34" width="1.36" height="20.83" style="fill:#95a9a7"/><rect x="783.08" y="377.87" width="1.36" height="20.83" style="fill:#95a9a7"/><rect x="774.36" y="375" width="1.36" height="20.83" style="fill:#95a9a7"/><rect x="803.58" y="351.84" width="18.55" height="7.05" style="fill:#95a9a7"/><rect x="805.62" y="357.44" width="14.49" height="3.96" style="fill:#95a9a7"/><rect x="829.5" y="353.98" width="3.56" height="2.85" style="fill:#95a9a7"/><rect x="834.32" y="353.98" width="5.08" height="5.44" style="fill:#95a9a7"/><rect x="553.37" y="296.59" width="47.12" height="73.28" style="fill:#658280"/><rect x="549.85" y="368.69" width="54.16" height="0.74" style="fill:#658280"/><rect x="551.31" y="358.4" width="51.23" height="0.74" style="fill:#658280"/><rect x="551.31" y="348.43" width="51.23" height="0.74" style="fill:#658280"/><rect x="551.31" y="338.47" width="51.23" height="0.74" style="fill:#658280"/><rect x="551.31" y="328.5" width="51.23" height="0.74" style="fill:#658280"/><rect x="551.31" y="318.53" width="51.23" height="0.74" style="fill:#658280"/><rect x="551.31" y="308.56" width="51.23" height="0.74" style="fill:#658280"/><rect x="548.06" y="369.44" width="57.74" height="2.02" style="fill:#658280"/><rect x="557.61" y="360.43" width="4.9" height="5.85" style="fill:#658280;opacity:0.29"/><rect x="568.56" y="360.43" width="4.9" height="5.85" style="fill:#658280"/><rect x="579.51" y="360.43" width="4.9" height="5.85" style="fill:#658280"/><rect x="590.46" y="360.43" width="4.9" height="5.85" style="fill:#658280"/><rect x="557.61" y="350.86" width="4.9" height="5.85" style="fill:#658280"/><rect x="568.56" y="350.86" width="4.9" height="5.85" style="fill:#658280;opacity:0.29"/><rect x="579.51" y="350.86" width="4.9" height="5.85" style="fill:#658280"/><rect x="590.46" y="350.86" width="4.9" height="5.85" style="fill:#658280"/><rect x="557.61" y="340.89" width="4.9" height="5.85" style="fill:#658280"/><rect x="568.56" y="340.89" width="4.9" height="5.85" style="fill:#658280"/><rect x="579.51" y="340.89" width="4.9" height="5.85" style="fill:#658280"/><rect x="590.46" y="340.89" width="4.9" height="5.85" style="fill:#658280;opacity:0.29"/><rect x="557.61" y="330.92" width="4.9" height="5.85" style="fill:#658280"/><rect x="568.56" y="330.92" width="4.9" height="5.85" style="fill:#658280;opacity:0.29"/><rect x="579.51" y="330.92" width="4.9" height="5.85" style="fill:#658280;opacity:0.29"/><rect x="590.46" y="330.92" width="4.9" height="5.85" style="fill:#658280"/><rect x="557.61" y="320.96" width="4.9" height="5.85" style="fill:#658280;opacity:0.29"/><rect x="568.56" y="320.96" width="4.9" height="5.85" style="fill:#658280"/><rect x="579.51" y="320.96" width="4.9" height="5.85" style="fill:#658280"/><rect x="590.46" y="320.96" width="4.9" height="5.85" style="fill:#658280"/><rect x="557.61" y="310.99" width="4.9" height="5.85" style="fill:#658280"/><rect x="568.56" y="310.99" width="4.9" height="5.85" style="fill:#658280"/><rect x="579.51" y="310.99" width="4.9" height="5.85" style="fill:#658280;opacity:0.29"/><rect x="590.46" y="310.99" width="4.9" height="5.85" style="fill:#658280"/><rect x="557.61" y="301.02" width="4.9" height="5.85" style="fill:#658280"/><rect x="568.56" y="301.02" width="4.9" height="5.85" style="fill:#658280;opacity:0.29"/><rect x="579.51" y="301.02" width="4.9" height="5.85" style="fill:#658280"/><rect x="590.46" y="301.02" width="4.9" height="5.85" style="fill:#658280;opacity:0.29"/><rect x="556.34" y="370.45" width="16.03" height="3.81" style="fill:#658280"/><rect x="555.26" y="373.71" width="18.2" height="0.65" style="fill:#658280"/><polygon points="485.83 296.59 423.07 296.59 423.07 366.22 485.83 373.62 485.83 296.59" style="fill:#658280"/><rect x="420.31" y="296.59" width="5.51" height="70.85" style="fill:#658280"/><rect x="436" y="296.59" width="5.52" height="72.85" style="fill:#658280"/><rect x="451.69" y="296.59" width="5.51" height="74.92" style="fill:#658280"/><rect x="467.39" y="296.59" width="5.51" height="76.61" style="fill:#658280"/><rect x="483.08" y="296.59" width="5.51" height="78.41" style="fill:#658280"/><rect x="427.25" y="356.12" width="7.32" height="5.38" style="fill:#658280;opacity:0.29"/><rect x="442.95" y="356.12" width="7.32" height="5.38" style="fill:#658280;opacity:0.29"/><rect x="458.64" y="356.12" width="7.32" height="5.38" style="fill:#658280"/><rect x="474.33" y="356.12" width="7.32" height="5.38" style="fill:#658280;opacity:0.29"/><rect x="427.25" y="346.75" width="7.32" height="5.38" style="fill:#658280"/><rect x="442.95" y="346.75" width="7.32" height="5.38" style="fill:#658280"/><rect x="458.64" y="346.75" width="7.32" height="5.38" style="fill:#658280;opacity:0.29"/><rect x="474.33" y="346.75" width="7.32" height="5.38" style="fill:#658280;opacity:0.29"/><rect x="427.25" y="337.38" width="7.32" height="5.38" style="fill:#658280;opacity:0.29"/><rect x="442.95" y="337.38" width="7.32" height="5.38" style="fill:#658280;opacity:0.29"/><rect x="458.64" y="337.38" width="7.32" height="5.38" style="fill:#658280;opacity:0.29"/><rect x="474.33" y="337.38" width="7.32" height="5.38" style="fill:#658280"/><rect x="427.25" y="328.01" width="7.32" height="5.38" style="fill:#658280;opacity:0.29"/><rect x="442.95" y="328.01" width="7.32" height="5.38" style="fill:#658280"/><rect x="458.64" y="328.01" width="7.32" height="5.38" style="fill:#658280;opacity:0.29"/><rect x="474.33" y="328.01" width="7.32" height="5.38" style="fill:#658280;opacity:0.29"/><rect x="427.25" y="318.64" width="7.32" height="5.38" style="fill:#658280;opacity:0.29"/><rect x="442.95" y="318.64" width="7.32" height="5.38" style="fill:#658280;opacity:0.29"/><rect x="458.64" y="318.64" width="7.32" height="5.38" style="fill:#658280"/><rect x="474.33" y="318.64" width="7.32" height="5.38" style="fill:#658280;opacity:0.29"/><rect x="427.25" y="309.27" width="7.32" height="5.38" style="fill:#658280"/><rect x="442.95" y="309.27" width="7.32" height="5.38" style="fill:#658280"/><rect x="458.64" y="309.27" width="7.32" height="5.38" style="fill:#658280;opacity:0.29"/><rect x="474.33" y="309.27" width="7.32" height="5.38" style="fill:#658280;opacity:0.29"/><rect x="427.25" y="299.9" width="7.32" height="5.38" style="fill:#658280;opacity:0.29"/><rect x="442.95" y="299.9" width="7.32" height="5.38" style="fill:#658280"/><rect x="458.64" y="299.9" width="7.32" height="5.38" style="fill:#658280;opacity:0.29"/><rect x="474.33" y="299.9" width="7.32" height="5.38" style="fill:#658280"/><polygon points="244.02 362.88 244.02 362.16 242.52 362.16 242.52 360.1 268.79 360.1 268.79 296.59 225.69 296.59 225.69 356.79 225.69 360.1 225.69 362.16 224.13 362.16 224.13 362.88 244.02 362.88" style="fill:#658280"/><rect x="317.44" y="296.59" width="36.92" height="37.44" style="fill:#658280"/><rect x="156.54" y="296.59" width="30.01" height="46.03" style="fill:#658280"/><rect x="180.6" y="296.59" width="32.7" height="36.44" style="fill:#658280"/><rect x="167.34" y="338.96" width="13.27" height="5.51" style="fill:#658280"/><rect x="182.85" y="332.28" width="34.86" height="1.35" style="fill:#658280"/><rect x="209.79" y="296.59" width="36.66" height="20.81" style="fill:#658280"/><rect x="91.3" y="296.59" width="29.82" height="37.73" style="fill:#658280"/><rect x="65.42" y="296.59" width="39.23" height="18.93" style="fill:#658280"/><rect x="22.22" y="296.59" width="24.54" height="22.02" style="fill:#658280"/><rect x="41.99" y="296.59" width="58" height="6.9" style="fill:#658280"/><rect y="296.59" width="29.73" height="9.13" style="fill:#658280"/><rect x="121.12" y="296.59" width="46.21" height="13.93" style="fill:#658280"/><rect x="256.69" y="296.59" width="71.99" height="6" style="fill:#658280"/><rect x="384.32" y="296.59" width="71.99" height="6" style="fill:#658280"/><polygon points="325.87 320.2 298.51 320.2 286.94 299.59 325.87 299.59 325.87 320.2" style="fill:#658280"/><rect x="338.52" y="327.33" width="0.76" height="22.87" style="fill:#658280"/><rect x="342.33" y="328.97" width="1.02" height="13.49" style="fill:#658280"/><rect x="336.88" y="333.39" width="13.84" height="6.68" style="fill:#658280"/><rect x="334.54" y="339.99" width="18.33" height="0.6" style="fill:#658280"/><rect x="347.64" y="296.59" width="44.73" height="19.31" style="fill:#658280"/><rect x="383.81" y="299.9" width="28.74" height="37.26" style="fill:#658280"/><rect x="496.05" y="296.59" width="45.91" height="33.57" style="fill:#658280"/><rect x="481.65" y="296.59" width="52.35" height="12.37" style="fill:#658280"/><rect x="539.42" y="296.59" width="34.04" height="4.43" style="fill:#658280"/><rect x="591.85" y="296.59" width="55.34" height="12.37" style="fill:#658280"/><rect x="613.9" y="296.59" width="68.87" height="44.75" transform="translate(1296.66 637.94) rotate(180)" style="fill:#658280"/><rect x="612.12" y="341.34" width="74.66" height="1.72" transform="translate(1298.9 684.4) rotate(180)" style="fill:#658280"/><rect x="649.45" y="338.65" width="30.26" height="9.07" transform="translate(1329.16 686.37) rotate(180)" style="fill:#658280"/><rect x="634.48" y="342.2" width="5.08" height="5.52" transform="translate(1274.04 689.92) rotate(180)" style="fill:#658280"/><rect x="623.81" y="342.2" width="5.59" height="5.52" transform="translate(1253.2 689.92) rotate(180)" style="fill:#658280"/><rect x="730.1" y="296.59" width="54.51" height="65.36" transform="translate(1514.72 658.54) rotate(180)" style="fill:#658280"/><rect x="728.56" y="361.23" width="57.61" height="1.85" transform="translate(1514.72 724.3) rotate(180)" style="fill:#658280"/><rect x="731.94" y="356.66" width="50.85" height="8.78" transform="translate(1514.72 722.1) rotate(180)" style="fill:#658280"/><rect x="758.76" y="359.44" width="20.14" height="9.59" transform="translate(1537.65 728.47) rotate(180)" style="fill:#658280"/><polygon points="767.24 366.33 778.89 366.33 778.89 371.38 770.53 371.38 767.24 366.33" style="fill:#658280"/><rect x="773.07" y="364.32" width="1.13" height="11.25" transform="translate(1547.26 739.89) rotate(180)" style="fill:#658280"/><path d="M772.62,376.15c0-.32.45-.58,1-.58s1,.26,1,.58-.46.59-1,.59S772.62,376.47,772.62,376.15Z" style="fill:#658280"/><rect x="777.15" y="296.59" width="24.4" height="26.98" style="fill:#658280"/><rect x="707.66" y="296.59" width="27.82" height="40.14" style="fill:#658280"/><polygon points="721.59 296.59 682.39 296.59 682.39 318.06 715.47 310.99 721.59 296.59" style="fill:#658280"/><rect x="793.54" y="296.59" width="59.85" height="11.66" style="fill:#658280"/><rect x="831.28" y="296.59" width="34.77" height="46.54" style="fill:#658280"/><rect x="857.92" y="296.59" width="57.6" height="8.69" style="fill:#658280"/><rect x="829.5" y="342.46" width="38.14" height="1.53" style="fill:#658280"/><rect x="860.63" y="341.17" width="0.76" height="9.38" style="fill:#658280"/><rect x="855.55" y="341.84" width="0.76" height="7.52" style="fill:#658280"/><polygon points="878.92 325.6 863.42 325.6 863.42 304.28 885.53 304.28 878.92 325.6" style="fill:#658280"/></g></g><g id="Object"><rect x="250.09" y="96.5" width="40.4" height="160.8" style="fill:#b5c3c2"/><rect x="256.69" y="84.97" width="27.2" height="67.58" style="fill:#b5c3c2"/><rect x="262.74" y="77.66" width="15.09" height="37.48" style="fill:#b5c3c2"/><polygon points="275.43 96.92 265.14 96.92 265.14 71.38 268.85 71.38 272.53 71.38 275.43 71.38 275.43 96.92" style="fill:#b5c3c2"/><polygon points="269.61 85.8 268.49 85.8 268.49 60.25 268.89 60.25 269.29 60.25 269.61 60.25 269.61 85.8" style="fill:#b5c3c2"/><polygon points="272.08 76.97 270.96 76.97 270.96 51.42 271.36 51.42 271.76 51.42 272.08 51.42 272.08 76.97" style="fill:#b5c3c2"/><rect x="249.01" y="96.09" width="42.55" height="1.71" style="fill:#b5c3c2"/><rect x="255.69" y="84.15" width="29.18" height="1.65" style="fill:#b5c3c2"/><rect x="261.64" y="76.97" width="16.82" height="1.26" style="fill:#b5c3c2"/><rect x="259.19" y="87.71" width="1.26" height="7.08" style="fill:#b5c3c2;opacity:0.29"/><rect x="262.69" y="87.71" width="1.26" height="7.08" style="fill:#b5c3c2;opacity:0.29"/><rect x="266.18" y="87.71" width="1.26" height="7.08" style="fill:#b5c3c2;opacity:0.29"/><rect x="269.68" y="87.71" width="1.26" height="7.08" style="fill:#b5c3c2;opacity:0.29"/><rect x="273.18" y="87.71" width="1.26" height="7.08" style="fill:#b5c3c2;opacity:0.29"/><rect x="276.68" y="87.71" width="1.26" height="7.08" style="fill:#b5c3c2;opacity:0.29"/><rect x="280.18" y="87.71" width="1.26" height="7.08" style="fill:#b5c3c2;opacity:0.29"/><rect x="253.63" y="102.91" width="3.06" height="8.4" style="fill:#b5c3c2"/><rect x="259.68" y="102.91" width="3.06" height="8.4" style="fill:#b5c3c2;opacity:0.29"/><rect x="265.73" y="102.91" width="3.06" height="8.4" style="fill:#b5c3c2"/><rect x="271.78" y="102.91" width="3.06" height="8.4" style="fill:#b5c3c2"/><rect x="277.83" y="102.91" width="3.05" height="8.4" style="fill:#b5c3c2"/><rect x="283.88" y="102.91" width="3.05" height="8.4" style="fill:#b5c3c2"/><rect x="253.63" y="116.01" width="3.06" height="8.4" style="fill:#b5c3c2"/><rect x="259.68" y="116.01" width="3.06" height="8.4" style="fill:#b5c3c2"/><rect x="265.73" y="116.01" width="3.06" height="8.4" style="fill:#b5c3c2"/><rect x="271.78" y="116.01" width="3.06" height="8.4" style="fill:#b5c3c2;opacity:0.29"/><rect x="277.83" y="116.01" width="3.05" height="8.4" style="fill:#b5c3c2"/><rect x="283.88" y="116.01" width="3.05" height="8.4" style="fill:#b5c3c2"/><rect x="253.63" y="129.1" width="3.06" height="8.4" style="fill:#b5c3c2"/><rect x="259.68" y="129.1" width="3.06" height="8.4" style="fill:#b5c3c2"/><rect x="265.73" y="129.1" width="3.06" height="8.4" style="fill:#b5c3c2"/><rect x="271.78" y="129.1" width="3.06" height="8.4" style="fill:#b5c3c2"/><rect x="277.83" y="129.1" width="3.05" height="8.4" style="fill:#b5c3c2;opacity:0.29"/><rect x="283.88" y="129.1" width="3.05" height="8.4" style="fill:#b5c3c2;opacity:0.29"/><rect x="253.63" y="142.19" width="3.06" height="8.4" style="fill:#b5c3c2;opacity:0.29"/><rect x="259.68" y="142.19" width="3.06" height="8.4" style="fill:#b5c3c2"/><rect x="265.73" y="142.19" width="3.06" height="8.4" style="fill:#b5c3c2"/><rect x="271.78" y="142.19" width="3.06" height="8.4" style="fill:#b5c3c2"/><rect x="277.83" y="142.19" width="3.05" height="8.4" style="fill:#b5c3c2"/><rect x="283.88" y="142.19" width="3.05" height="8.4" style="fill:#b5c3c2"/><rect x="253.63" y="155.29" width="3.06" height="8.4" style="fill:#b5c3c2"/><rect x="259.68" y="155.29" width="3.06" height="8.4" style="fill:#b5c3c2;opacity:0.29"/><rect x="265.73" y="155.29" width="3.06" height="8.4" style="fill:#b5c3c2"/><rect x="271.78" y="155.29" width="3.06" height="8.4" style="fill:#b5c3c2;opacity:0.29"/><rect x="277.83" y="155.29" width="3.05" height="8.4" style="fill:#b5c3c2"/><rect x="283.88" y="155.29" width="3.05" height="8.4" style="fill:#b5c3c2"/><rect x="253.63" y="168.38" width="3.06" height="8.4" style="fill:#b5c3c2"/><rect x="259.68" y="168.38" width="3.06" height="8.4" style="fill:#b5c3c2"/><rect x="265.73" y="168.38" width="3.06" height="8.4" style="fill:#b5c3c2"/><rect x="271.78" y="168.38" width="3.06" height="8.4" style="fill:#b5c3c2"/><rect x="277.83" y="168.38" width="3.05" height="8.4" style="fill:#b5c3c2"/><rect x="283.88" y="168.38" width="3.05" height="8.4" style="fill:#b5c3c2;opacity:0.29"/><rect x="253.63" y="181.48" width="3.06" height="8.4" style="fill:#b5c3c2"/><rect x="259.68" y="181.48" width="3.06" height="8.4" style="fill:#b5c3c2;opacity:0.29"/><rect x="265.73" y="181.48" width="3.06" height="8.4" style="fill:#b5c3c2;opacity:0.29"/><rect x="271.78" y="181.48" width="3.06" height="8.4" style="fill:#b5c3c2"/><rect x="277.83" y="181.48" width="3.05" height="8.4" style="fill:#b5c3c2"/><rect x="283.88" y="181.48" width="3.05" height="8.4" style="fill:#b5c3c2"/><rect x="253.63" y="194.57" width="3.06" height="8.4" style="fill:#b5c3c2"/><rect x="259.68" y="194.57" width="3.06" height="8.4" style="fill:#b5c3c2"/><rect x="265.73" y="194.57" width="3.06" height="8.4" style="fill:#b5c3c2"/><rect x="271.78" y="194.57" width="3.06" height="8.4" style="fill:#b5c3c2"/><rect x="277.83" y="194.57" width="3.05" height="8.4" style="fill:#b5c3c2;opacity:0.29"/><rect x="283.88" y="194.57" width="3.05" height="8.4" style="fill:#b5c3c2"/><rect x="253.63" y="207.67" width="3.06" height="8.4" style="fill:#b5c3c2"/><rect x="259.68" y="207.67" width="3.06" height="8.4" style="fill:#b5c3c2;opacity:0.29"/><rect x="265.73" y="207.67" width="3.06" height="8.4" style="fill:#b5c3c2"/><rect x="271.78" y="207.67" width="3.06" height="8.4" style="fill:#b5c3c2"/><rect x="277.83" y="207.67" width="3.05" height="8.4" style="fill:#b5c3c2"/><rect x="283.88" y="207.67" width="3.05" height="8.4" style="fill:#b5c3c2"/><rect x="253.63" y="220.76" width="3.06" height="8.4" style="fill:#b5c3c2"/><rect x="259.68" y="220.76" width="3.06" height="8.4" style="fill:#b5c3c2"/><rect x="265.73" y="220.76" width="3.06" height="8.4" style="fill:#b5c3c2"/><rect x="271.78" y="220.76" width="3.06" height="8.4" style="fill:#b5c3c2;opacity:0.29"/><rect x="277.83" y="220.76" width="3.05" height="8.4" style="fill:#b5c3c2"/><rect x="283.88" y="220.76" width="3.05" height="8.4" style="fill:#b5c3c2;opacity:0.29"/><rect x="253.63" y="233.86" width="3.06" height="8.4" style="fill:#b5c3c2;opacity:0.29"/><rect x="259.68" y="233.86" width="3.06" height="8.4" style="fill:#b5c3c2"/><rect x="265.73" y="233.86" width="3.06" height="8.4" style="fill:#b5c3c2;opacity:0.29"/><rect x="271.78" y="233.86" width="3.06" height="8.4" style="fill:#b5c3c2"/><rect x="277.83" y="233.86" width="3.05" height="8.4" style="fill:#b5c3c2"/><rect x="283.88" y="233.86" width="3.05" height="8.4" style="fill:#b5c3c2"/><rect x="132.76" y="102.62" width="64.94" height="135.46" style="fill:#b5c3c2"/><rect x="130.91" y="100.29" width="68.63" height="3.83" style="fill:#b5c3c2"/><rect x="134.94" y="95.39" width="60.58" height="18.2" style="fill:#b5c3c2"/><rect x="139.58" y="87.94" width="23.99" height="19.88" style="fill:#b5c3c2"/><polygon points="153.46 93.54 139.58 93.54 139.58 83.08 149.53 83.08 153.46 93.54" style="fill:#b5c3c2"/><rect x="145.17" y="74.39" width="1.35" height="23.31" style="fill:#b5c3c2"/><path d="M147.05,73.18A1.21,1.21,0,1,1,145.84,72,1.21,1.21,0,0,1,147.05,73.18Z" style="fill:#b5c3c2"/><polygon points="735.49 248.39 664.4 248.39 655.53 49.22 735.49 65.82 735.49 248.39" style="fill:#b5c3c2"/><polygon points="425.34 134.65 425.34 68.06 414.19 68.06 414.19 50.23 410.21 50.23 410.21 24.07 388.26 24.07 388.26 4.84 386.31 4.84 386.31 24.07 382.01 24.07 382.01 0 380.06 0 380.06 24.07 366.19 24.07 366.19 68.06 359.02 68.06 359.02 134.65 352.88 134.65 352.88 255.93 429.66 255.93 429.66 134.65 425.34 134.65" style="fill:#b5c3c2"/><rect x="41.99" y="245.92" width="849.37" height="20.2" style="fill:#b5c3c2"/><polygon points="541.96 261.17 504.35 261.17 519 185.86 541.96 185.86 541.96 261.17" style="fill:#95a9a7"/><rect x="11.52" y="264.11" width="891.8" height="31.85" style="fill:#95a9a7"/><polygon points="511.14 121.8 511.14 88.43 499.06 88.43 499.06 75.72 492.6 75.72 492.6 65.05 490.33 65.05 490.33 46.75 489.75 46.75 489.75 65.05 487.48 65.05 487.48 75.72 481.02 75.72 481.02 88.43 469.03 88.43 469.03 121.8 466.54 121.8 466.54 182.4 447.96 182.4 447.96 251.47 466.54 251.47 485.12 251.47 513.54 251.47 513.54 121.8 511.14 121.8" style="fill:#95a9a7"/><polygon points="580.54 160.14 522.09 160.14 522.09 161.2 524.73 161.2 524.73 260.05 577.9 260.05 577.9 161.2 580.54 161.2 580.54 160.14" style="fill:#95a9a7"/><rect x="262.17" y="184.76" width="51.83" height="82.34" style="fill:#95a9a7"/><rect x="165.23" y="226.95" width="89.13" height="40.15" style="fill:#95a9a7"/><rect x="213" y="137.24" width="19.57" height="98.6" style="fill:#95a9a7"/><rect x="217.32" y="110.94" width="1.02" height="53.62" style="fill:#95a9a7"/><rect x="220.63" y="115" width="1.02" height="53.62" style="fill:#95a9a7"/><rect x="214.51" y="131.14" width="11.96" height="13.21" style="fill:#95a9a7"/><rect x="250.87" y="199.5" width="34.05" height="67.6" style="fill:#95a9a7"/><rect x="322.39" y="127.97" width="63.92" height="139.13" style="fill:#95a9a7"/><rect x="328.67" y="123.18" width="51.36" height="23.17" style="fill:#95a9a7"/><rect x="317.44" y="130.88" width="73.83" height="1.63" style="fill:#95a9a7"/><rect x="310.81" y="196.83" width="30.12" height="70.26" style="fill:#95a9a7"/><rect x="95.09" y="194.16" width="34.56" height="72.93" style="fill:#95a9a7"/><rect x="106.27" y="174.34" width="68.87" height="92.75" style="fill:#95a9a7"/><rect x="102.25" y="170.78" width="74.66" height="3.56" style="fill:#95a9a7"/><rect x="109.32" y="161.13" width="30.26" height="18.81" style="fill:#95a9a7"/><rect x="149.47" y="161.13" width="5.08" height="11.44" style="fill:#95a9a7"/><rect x="159.64" y="161.13" width="5.59" height="11.44" style="fill:#95a9a7"/><rect x="76.28" y="238.89" width="36.09" height="28.21" style="fill:#95a9a7"/><rect x="62.66" y="226.95" width="17.09" height="40.15" style="fill:#95a9a7"/><rect x="41.99" y="252.99" width="29.2" height="14.1" style="fill:#95a9a7"/><rect x="380.03" y="235.84" width="359.85" height="31.26" style="fill:#95a9a7"/><path d="M711.15,149.32a4.32,4.32,0,0,0-4.31,4l-5.06-.17c0-.49,0-1,0-1.49a53.18,53.18,0,0,0-3.18-18.19l4.24-1.56a4.31,4.31,0,1,0-.36-1.72,4.43,4.43,0,0,0,.19,1.27L698.46,133a53.12,53.12,0,0,0-10.9-17.62l3.31-3.1a4.3,4.3,0,1,0-.33-.35l-3.31,3.1c-.34-.36-.69-.72-1-1.07A53.18,53.18,0,0,0,669,102.4L670.81,98a4.32,4.32,0,1,0-.45-.17l-1.82,4.42a53.22,53.22,0,0,0-18.06-3.84l.2-6.06h.14a4.3,4.3,0,1,0-.62,0l-.2,6.09c-.49,0-1,0-1.49,0A53.41,53.41,0,0,0,631,101.26l-1.75-5a4.22,4.22,0,1,0-.45.16l1.74,5a53.08,53.08,0,0,0-18.31,11.15l-3.16-3.37a4.32,4.32,0,0,0-3.18-7.25,4.33,4.33,0,1,0,2.84,7.59l3.15,3.36-1.07,1a53.37,53.37,0,0,0-10.62,15.12l-4-1.86a4.15,4.15,0,0,0,.23-1.37,4.31,4.31,0,1,0-.4,1.82l4,1.84a53.09,53.09,0,0,0-4.75,20.16l-5.15-.17a4.3,4.3,0,1,0,0,.48l5.15.17c0,.5,0,1,0,1.49a53.51,53.51,0,0,0,3.17,18.2l-4.23,1.55a4.33,4.33,0,1,0,.35,1.72,4.43,4.43,0,0,0-.18-1.27l4.23-1.55a53,53,0,0,0,10.9,17.61l-3.32,3.1a4.3,4.3,0,1,0,.33.35l3.31-3.1c.35.36.69.72,1,1.07A53.55,53.55,0,0,0,622,197.86l-26.07,48.06h-4.68v1.38h-2.3V250H708.08V247.3h-2.29v-1.38h-4.68L675,197.86a53.51,53.51,0,0,0,9.73-7.19l4.23,4.51a4.25,4.25,0,1,0,.38-.3l-4.26-4.54,1.07-1a53.4,53.4,0,0,0,10.63-15.12l4.7,2.18a4.51,4.51,0,0,0-.13,1,4.33,4.33,0,1,0,.28-1.52L697,173.75a53.08,53.08,0,0,0,4.74-20.16l5.07.17a4.32,4.32,0,1,0,4.32-4.44Zm-10.79,2.3c0,.48,0,1,0,1.45l-14.92-.49c0-.32,0-.64,0-1a36.68,36.68,0,0,0-2.19-12.53l14-5.17A51.86,51.86,0,0,1,700.36,151.62Zm-15.66.94-33.28-1.09a2.6,2.6,0,0,0-.11-.62l31.25-11.51a36,36,0,0,1,2.15,12.28C684.71,151.93,684.7,152.25,684.7,152.56Zm-72.37-1.87,33.28,1.08a2.76,2.76,0,0,0,.1.63l-31.25,11.5a35.94,35.94,0,0,1-2.14-12.28C612.32,151.31,612.32,151,612.33,150.69Zm38.46-.87,24.28-22.76a36.3,36.3,0,0,1,7.33,11.83l-31.25,11.5A3,3,0,0,0,650.79,149.82Zm-.33-.36a3.27,3.27,0,0,0-.62-.43l12.64-30.8a36.34,36.34,0,0,1,12.27,8.48Zm-1.07-.61a2.48,2.48,0,0,0-.54-.12l1.08-33.28a36.2,36.2,0,0,1,12.11,2.6Zm-1-.13a2.8,2.8,0,0,0-.59.09L636.71,117.4a36,36,0,0,1,11.8-2l.94,0Zm-1,.25a2.68,2.68,0,0,0-.61.37L624,125.06a36.49,36.49,0,0,1,12.3-7.5Zm-1,.7a2.77,2.77,0,0,0-.38.52l-30.23-14a36.42,36.42,0,0,1,7.85-10.84Zm-.58,1a3,3,0,0,0-.16.67l-33.27-1.09a35.86,35.86,0,0,1,3.2-13.53Zm.1,2.23a2.53,2.53,0,0,0,.28.47l-.2.37-24,22.49a36.27,36.27,0,0,1-7.32-11.83Zm-.65,2.18-15.07,27.78a36.3,36.3,0,0,1-7.88-6.28Zm1.64-1a3.37,3.37,0,0,0,.32.19L634.54,185a35.26,35.26,0,0,1-3.55-1.73Zm.76.37a2.57,2.57,0,0,0,.55.12l-1.08,33.28a35.86,35.86,0,0,1-12.11-2.6Zm.88,33.43h-.93l1.08-33.29a2.9,2.9,0,0,0,.59-.09l11.07,31.41A36.09,36.09,0,0,1,648.51,187.82Zm1.19-33.55a2.94,2.94,0,0,0,.46-.25L666,183.28a34.76,34.76,0,0,1-5.26,2.4Zm2.67,1.82,20.7,22.09a36,36,0,0,1-6.2,4.63Zm-.9-1.67-.6-1.1a1.78,1.78,0,0,0,.17-.27l30.23,14a36.56,36.56,0,0,1-7.84,10.85Zm-.23-1.8a2.89,2.89,0,0,0,.16-.66L684.68,153a35.82,35.82,0,0,1-3.21,13.53Zm-17,33.06-5.68,13.83a50.4,50.4,0,0,1-5.08-2.44l7.14-13.15A35.58,35.58,0,0,0,634.27,185.68Zm.44.18a36.9,36.9,0,0,0,12.36,2.65l-.48,14.92A51.64,51.64,0,0,1,629,199.69Zm12.84,2.67h1a36.71,36.71,0,0,0,12-2l5,14.1a51.91,51.91,0,0,1-17,2.84c-.48,0-1,0-1.44,0ZM661,186.36a36.65,36.65,0,0,0,5.37-2.44l7.13,13.15a50.85,50.85,0,0,1-7.53,3.39Zm36.1-52.89-14,5.17a36.85,36.85,0,0,0-7.47-12.07l10.91-10.22A51.71,51.71,0,0,1,697.11,133.47ZM685.17,115c.34.34.68.69,1,1l-10.91,10.22a37,37,0,0,0-12.51-8.66l5.68-13.83A51.76,51.76,0,0,1,685.17,115ZM668,103.55l-5.68,13.83A36.79,36.79,0,0,0,650,114.73l.49-14.92A51.59,51.59,0,0,1,668,103.55Zm-19.48-3.77c.49,0,1,0,1.45,0l-.49,14.92-1,0a36.92,36.92,0,0,0-12,2l-5-14.1A51.9,51.9,0,0,1,648.51,99.78Zm-17.47,3,5,14.1a37.12,37.12,0,0,0-12.55,7.65l-10.22-10.9A51.62,51.62,0,0,1,631,102.78ZM611.85,115l1-1,10.22,10.91a37.15,37.15,0,0,0-8,11.07l-13.58-6.27A52,52,0,0,1,611.85,115ZM601.32,130.1l13.58,6.27a36.68,36.68,0,0,0-3.27,13.81l-14.93-.48A51.52,51.52,0,0,1,601.32,130.1Zm-4.65,21.52c0-.48,0-1,0-1.44l14.92.48c0,.32,0,.64,0,1a36.63,36.63,0,0,0,2.19,12.53l-14,5.17A52.09,52.09,0,0,1,596.67,151.62Zm3.25,18.15,14-5.17a37,37,0,0,0,7.47,12.07l-10.9,10.22A51.54,51.54,0,0,1,599.92,169.77Zm11.93,18.51c-.34-.34-.67-.69-1-1L621.75,177a37.35,37.35,0,0,0,8.06,6.41l-7.13,13.15A52,52,0,0,1,611.85,188.28ZM700,245.92H597l25.82-47.59a51,51,0,0,0,5.21,2.52l-1.82,4.43a4.42,4.42,0,0,0-1.31-.2,4.31,4.31,0,1,0,1.76.37l1.81-4.42a53.32,53.32,0,0,0,18.06,3.84l-.15,4.54a4.28,4.28,0,1,0,.48,0l.15-4.54c.5,0,1,0,1.49,0A53.47,53.47,0,0,0,666,202l1.55,4.41a4.32,4.32,0,1,0,1.83-.41,4.21,4.21,0,0,0-1.38.23l-1.55-4.39a52.68,52.68,0,0,0,7.74-3.49Zm-25.67-49.33-7.14-13.15a37.37,37.37,0,0,0,6.36-4.73l10.22,10.91A52.4,52.4,0,0,1,674.35,196.59Zm10.82-8.31-1,1-10.22-10.91a36.82,36.82,0,0,0,8-11.07l13.59,6.27A52,52,0,0,1,685.17,188.28Zm10.54-15.14-13.58-6.27a36.63,36.63,0,0,0,3.27-13.81l14.92.49A51.69,51.69,0,0,1,695.71,173.14Z" style="fill:#95a9a7"/><rect x="721.59" y="185.68" width="55.57" height="81.42" style="fill:#95a9a7"/><rect x="769.02" y="217.33" width="55.57" height="49.3" style="fill:#95a9a7"/><rect x="553.53" y="210.09" width="31.17" height="41.38" style="fill:#95a9a7"/><rect x="749.37" y="108.25" width="39.3" height="158.85" style="fill:#95a9a7"/><polygon points="853.39 267.1 801.55 267.1 801.55 174.34 840.86 174.34 853.39 267.1" style="fill:#95a9a7"/><rect x="830.69" y="245.92" width="45.4" height="21.17" style="fill:#95a9a7"/><rect x="778.51" y="75.06" width="1.36" height="43.17" style="fill:#95a9a7"/><rect x="783.08" y="84.33" width="1.36" height="43.17" style="fill:#95a9a7"/><rect x="774.36" y="90.29" width="1.36" height="43.17" style="fill:#95a9a7"/><rect x="803.58" y="166.85" width="18.55" height="14.61" style="fill:#95a9a7"/><rect x="805.62" y="161.64" width="14.49" height="8.21" style="fill:#95a9a7"/><rect x="829.5" y="171.13" width="3.56" height="5.9" style="fill:#95a9a7"/><rect x="834.32" y="165.74" width="5.08" height="11.28" style="fill:#95a9a7"/><rect x="553.37" y="144.08" width="47.12" height="151.88" style="fill:#658280"/><rect x="549.85" y="144.98" width="54.16" height="1.54" style="fill:#658280"/><rect x="551.31" y="166.32" width="51.23" height="1.53" style="fill:#658280"/><rect x="551.31" y="186.98" width="51.23" height="1.53" style="fill:#658280"/><rect x="551.31" y="207.64" width="51.23" height="1.53" style="fill:#658280"/><rect x="551.31" y="228.3" width="51.23" height="1.53" style="fill:#658280"/><rect x="551.31" y="248.96" width="51.23" height="1.53" style="fill:#658280"/><rect x="551.31" y="269.62" width="51.23" height="1.53" style="fill:#658280"/><rect x="548.06" y="140.79" width="57.74" height="4.2" style="fill:#658280"/><rect x="557.61" y="151.51" width="4.9" height="12.13" style="fill:#658280;opacity:0.29"/><rect x="568.56" y="151.51" width="4.9" height="12.13" style="fill:#658280"/><rect x="579.51" y="151.51" width="4.9" height="12.13" style="fill:#658280"/><rect x="590.46" y="151.51" width="4.9" height="12.13" style="fill:#658280"/><rect x="557.61" y="171.35" width="4.9" height="12.13" style="fill:#658280"/><rect x="568.56" y="171.35" width="4.9" height="12.13" style="fill:#658280;opacity:0.29"/><rect x="579.51" y="171.35" width="4.9" height="12.13" style="fill:#658280"/><rect x="590.46" y="171.35" width="4.9" height="12.13" style="fill:#658280"/><rect x="557.61" y="192.01" width="4.9" height="12.13" style="fill:#658280"/><rect x="568.56" y="192.01" width="4.9" height="12.13" style="fill:#658280"/><rect x="579.51" y="192.01" width="4.9" height="12.13" style="fill:#658280"/><rect x="590.46" y="192.01" width="4.9" height="12.13" style="fill:#658280;opacity:0.29"/><rect x="557.61" y="212.67" width="4.9" height="12.13" style="fill:#658280"/><rect x="568.56" y="212.67" width="4.9" height="12.13" style="fill:#658280;opacity:0.29"/><rect x="579.51" y="212.67" width="4.9" height="12.13" style="fill:#658280;opacity:0.29"/><rect x="590.46" y="212.67" width="4.9" height="12.13" style="fill:#658280"/><rect x="557.61" y="233.33" width="4.9" height="12.13" style="fill:#658280;opacity:0.29"/><rect x="568.56" y="233.33" width="4.9" height="12.13" style="fill:#658280"/><rect x="579.51" y="233.33" width="4.9" height="12.13" style="fill:#658280"/><rect x="590.46" y="233.33" width="4.9" height="12.13" style="fill:#658280"/><rect x="557.61" y="253.99" width="4.9" height="12.13" style="fill:#658280"/><rect x="568.56" y="253.99" width="4.9" height="12.13" style="fill:#658280"/><rect x="579.51" y="253.99" width="4.9" height="12.13" style="fill:#658280;opacity:0.29"/><rect x="590.46" y="253.99" width="4.9" height="12.13" style="fill:#658280"/><rect x="557.61" y="274.65" width="4.9" height="12.13" style="fill:#658280"/><rect x="568.56" y="274.65" width="4.9" height="12.13" style="fill:#658280;opacity:0.29"/><rect x="579.51" y="274.65" width="4.9" height="12.13" style="fill:#658280"/><rect x="590.46" y="274.65" width="4.9" height="12.13" style="fill:#658280;opacity:0.29"/><rect x="556.34" y="135" width="16.03" height="7.89" style="fill:#658280"/><rect x="555.26" y="134.77" width="18.2" height="1.35" style="fill:#658280"/><polygon points="485.83 295.96 423.07 295.96 423.07 151.66 485.83 136.3 485.83 295.96" style="fill:#658280"/><rect x="420.31" y="149.12" width="5.51" height="146.85" style="fill:#658280"/><rect x="436" y="144.98" width="5.52" height="150.98" style="fill:#658280"/><rect x="451.69" y="140.68" width="5.51" height="155.28" style="fill:#658280"/><rect x="467.39" y="137.18" width="5.51" height="158.78" style="fill:#658280"/><rect x="483.08" y="133.45" width="5.51" height="162.51" style="fill:#658280"/><rect x="427.25" y="161.44" width="7.32" height="11.15" style="fill:#658280;opacity:0.29"/><rect x="442.95" y="161.44" width="7.32" height="11.15" style="fill:#658280;opacity:0.29"/><rect x="458.64" y="161.44" width="7.32" height="11.15" style="fill:#658280"/><rect x="474.33" y="161.44" width="7.32" height="11.15" style="fill:#658280;opacity:0.29"/><rect x="427.25" y="180.86" width="7.32" height="11.15" style="fill:#658280"/><rect x="442.95" y="180.86" width="7.32" height="11.15" style="fill:#658280"/><rect x="458.64" y="180.86" width="7.32" height="11.15" style="fill:#658280;opacity:0.29"/><rect x="474.33" y="180.86" width="7.32" height="11.15" style="fill:#658280;opacity:0.29"/><rect x="427.25" y="200.28" width="7.32" height="11.15" style="fill:#658280;opacity:0.29"/><rect x="442.95" y="200.28" width="7.32" height="11.15" style="fill:#658280;opacity:0.29"/><rect x="458.64" y="200.28" width="7.32" height="11.15" style="fill:#658280;opacity:0.29"/><rect x="474.33" y="200.28" width="7.32" height="11.15" style="fill:#658280"/><rect x="427.25" y="219.69" width="7.32" height="11.15" style="fill:#658280;opacity:0.29"/><rect x="442.95" y="219.69" width="7.32" height="11.15" style="fill:#658280"/><rect x="458.64" y="219.69" width="7.32" height="11.15" style="fill:#658280;opacity:0.29"/><rect x="474.33" y="219.69" width="7.32" height="11.15" style="fill:#658280;opacity:0.29"/><rect x="427.25" y="239.11" width="7.32" height="11.15" style="fill:#658280;opacity:0.29"/><rect x="442.95" y="239.11" width="7.32" height="11.15" style="fill:#658280;opacity:0.29"/><rect x="458.64" y="239.11" width="7.32" height="11.15" style="fill:#658280"/><rect x="474.33" y="239.11" width="7.32" height="11.15" style="fill:#658280;opacity:0.29"/><rect x="427.25" y="258.53" width="7.32" height="11.15" style="fill:#658280"/><rect x="442.95" y="258.53" width="7.32" height="11.15" style="fill:#658280"/><rect x="458.64" y="258.53" width="7.32" height="11.15" style="fill:#658280;opacity:0.29"/><rect x="474.33" y="258.53" width="7.32" height="11.15" style="fill:#658280;opacity:0.29"/><rect x="427.25" y="277.95" width="7.32" height="11.15" style="fill:#658280;opacity:0.29"/><rect x="442.95" y="277.95" width="7.32" height="11.15" style="fill:#658280"/><rect x="458.64" y="277.95" width="7.32" height="11.15" style="fill:#658280;opacity:0.29"/><rect x="474.33" y="277.95" width="7.32" height="11.15" style="fill:#658280"/><polygon points="244.02 158.57 244.02 160.07 242.52 160.07 242.52 164.34 268.79 164.34 268.79 295.96 225.69 295.96 225.69 171.2 225.69 164.34 225.69 160.07 224.13 160.07 224.13 158.57 244.02 158.57" style="fill:#658280"/><rect x="317.44" y="218.36" width="36.92" height="77.61" style="fill:#658280"/><rect x="156.54" y="200.57" width="30.01" height="95.4" style="fill:#658280"/><rect x="180.6" y="220.44" width="32.7" height="75.52" style="fill:#658280"/><rect x="167.34" y="196.74" width="13.27" height="11.42" style="fill:#658280"/><rect x="182.85" y="219.2" width="34.86" height="2.79" style="fill:#658280"/><rect x="209.79" y="252.83" width="36.66" height="43.13" style="fill:#658280"/><rect x="91.3" y="217.75" width="29.82" height="78.21" style="fill:#658280"/><rect x="65.42" y="256.73" width="39.23" height="39.23" style="fill:#658280"/><rect x="22.22" y="250.31" width="24.54" height="45.65" style="fill:#658280"/><rect x="41.99" y="281.66" width="58" height="14.3" style="fill:#658280"/><rect y="277.04" width="29.73" height="18.92" style="fill:#658280"/><rect x="121.12" y="267.1" width="46.21" height="28.86" style="fill:#658280"/><rect x="256.69" y="283.53" width="71.99" height="12.43" style="fill:#658280"/><rect x="384.32" y="283.53" width="71.99" height="12.43" style="fill:#658280"/><polygon points="325.87 247.02 298.51 247.02 286.94 289.74 325.87 289.74 325.87 247.02" style="fill:#658280"/><rect x="338.52" y="184.86" width="0.76" height="47.39" style="fill:#658280"/><rect x="342.33" y="200.9" width="1.02" height="27.97" style="fill:#658280"/><rect x="336.88" y="205.85" width="13.84" height="13.84" style="fill:#658280"/><rect x="334.54" y="204.78" width="18.33" height="1.24" style="fill:#658280"/><rect x="347.64" y="255.93" width="44.73" height="40.03" style="fill:#658280"/><rect x="383.81" y="211.87" width="28.74" height="77.23" style="fill:#658280"/><rect x="496.05" y="226.39" width="45.91" height="69.57" style="fill:#658280"/><rect x="481.65" y="270.33" width="52.35" height="25.64" style="fill:#658280"/><rect x="539.42" y="286.79" width="34.04" height="9.18" style="fill:#658280"/><rect x="591.85" y="270.33" width="55.34" height="25.64" style="fill:#658280"/><rect x="613.9" y="203.21" width="68.87" height="92.75" transform="translate(1296.66 499.17) rotate(180)" style="fill:#658280"/><rect x="612.12" y="199.65" width="74.66" height="3.56" transform="translate(1298.9 402.85) rotate(180)" style="fill:#658280"/><rect x="649.45" y="189.99" width="30.26" height="18.81" transform="translate(1329.16 398.79) rotate(180)" style="fill:#658280"/><rect x="634.48" y="189.99" width="5.08" height="11.44" transform="translate(1274.04 391.42) rotate(180)" style="fill:#658280"/><rect x="623.81" y="189.99" width="5.59" height="11.44" transform="translate(1253.2 391.42) rotate(180)" style="fill:#658280"/><rect x="730.1" y="160.5" width="54.51" height="135.46" transform="translate(1514.72 456.46) rotate(180)" style="fill:#658280"/><rect x="728.56" y="158.17" width="57.61" height="3.83" transform="translate(1514.72 320.16) rotate(180)" style="fill:#658280"/><rect x="731.94" y="153.27" width="50.85" height="18.2" transform="translate(1514.72 324.73) rotate(180)" style="fill:#658280"/><rect x="758.76" y="145.82" width="20.14" height="19.88" transform="translate(1537.65 311.52) rotate(180)" style="fill:#658280"/><polygon points="767.24 151.43 778.89 151.43 778.89 140.96 770.53 140.96 767.24 151.43" style="fill:#658280"/><rect x="773.07" y="132.27" width="1.13" height="23.31" transform="translate(1547.26 287.85) rotate(180)" style="fill:#658280"/><path d="M772.62,131.06a1,1,0,1,0,1-1.21A1.12,1.12,0,0,0,772.62,131.06Z" style="fill:#658280"/><rect x="777.15" y="240.04" width="24.4" height="55.92" style="fill:#658280"/><rect x="707.66" y="212.77" width="27.82" height="83.19" style="fill:#658280"/><polygon points="721.59 295.96 682.39 295.96 682.39 251.47 715.47 266.12 721.59 295.96" style="fill:#658280"/><rect x="793.54" y="271.8" width="59.85" height="24.16" style="fill:#658280"/><rect x="831.28" y="199.5" width="34.77" height="96.46" style="fill:#658280"/><rect x="857.92" y="277.95" width="57.6" height="18.01" style="fill:#658280"/><rect x="829.5" y="197.73" width="38.14" height="3.16" style="fill:#658280"/><rect x="860.63" y="184.12" width="0.76" height="19.44" style="fill:#658280"/><rect x="855.55" y="186.58" width="0.76" height="15.59" style="fill:#658280"/><polygon points="878.92 235.84 863.42 235.84 863.42 280.03 885.53 280.03 878.92 235.84" style="fill:#658280"/><g style="opacity:0.52"><rect x="159.64" y="205.4" width="2.27" height="2.27" style="fill:#fff"/><rect x="164.2" y="205.4" width="2.27" height="2.27" style="fill:#fff"/><rect x="159.64" y="210.73" width="2.27" height="2.27" style="fill:#fff"/><rect x="164.2" y="210.73" width="2.27" height="2.27" style="fill:#fff"/><rect x="159.64" y="215.89" width="2.27" height="2.27" style="fill:#fff"/><rect x="169.27" y="205.4" width="2.27" height="2.27" style="fill:#fff"/></g><rect x="325.87" y="137.18" width="1.55" height="8.57" style="fill:#fff;opacity:0.5"/><rect x="331.21" y="137.18" width="1.55" height="8.57" style="fill:#fff;opacity:0.5"/><rect x="336.55" y="137.18" width="1.55" height="8.57" style="fill:#fff;opacity:0.5"/><rect x="341.89" y="137.18" width="1.55" height="8.57" style="fill:#fff;opacity:0.5"/><rect x="347.23" y="137.18" width="1.55" height="8.57" style="fill:#fff;opacity:0.5"/><rect x="352.57" y="137.18" width="1.55" height="8.57" style="fill:#fff;opacity:0.5"/><rect x="357.9" y="137.18" width="1.55" height="8.57" style="fill:#fff;opacity:0.5"/><rect x="363.24" y="137.18" width="1.55" height="8.57" style="fill:#fff;opacity:0.5"/><rect x="368.58" y="137.18" width="1.55" height="8.57" style="fill:#fff;opacity:0.5"/><rect x="373.92" y="137.18" width="1.55" height="8.57" style="fill:#fff;opacity:0.5"/><rect x="379.26" y="137.18" width="1.55" height="8.57" style="fill:#fff;opacity:0.5"/><rect x="325.87" y="149.12" width="1.55" height="8.57" style="fill:#fff;opacity:0.5"/><rect x="331.21" y="149.12" width="1.55" height="8.57" style="fill:#fff;opacity:0.5"/><rect x="336.55" y="149.12" width="1.55" height="8.57" style="fill:#fff;opacity:0.5"/><rect x="341.89" y="149.12" width="1.55" height="8.57" style="fill:#fff;opacity:0.5"/><rect x="347.23" y="149.12" width="1.55" height="8.57" style="fill:#fff;opacity:0.5"/><rect x="352.57" y="149.12" width="1.55" height="8.57" style="fill:#fff;opacity:0.5"/><rect x="357.9" y="149.12" width="1.55" height="8.57" style="fill:#fff;opacity:0.5"/><rect x="363.24" y="149.12" width="1.55" height="8.57" style="fill:#fff;opacity:0.5"/><rect x="368.58" y="149.12" width="1.55" height="8.57" style="fill:#fff;opacity:0.5"/><rect x="373.92" y="149.12" width="1.55" height="8.57" style="fill:#fff;opacity:0.5"/><rect x="379.26" y="149.12" width="1.55" height="8.57" style="fill:#fff;opacity:0.5"/><rect x="325.87" y="161.05" width="1.55" height="8.57" style="fill:#fff;opacity:0.5"/><rect x="331.21" y="161.05" width="1.55" height="8.57" style="fill:#fff;opacity:0.5"/><rect x="336.55" y="161.05" width="1.55" height="8.57" style="fill:#fff;opacity:0.5"/><rect x="341.89" y="161.05" width="1.55" height="8.57" style="fill:#fff;opacity:0.5"/><rect x="347.23" y="161.05" width="1.55" height="8.57" style="fill:#fff;opacity:0.5"/><rect x="352.57" y="161.05" width="1.55" height="8.57" style="fill:#fff;opacity:0.5"/><rect x="357.9" y="161.05" width="1.55" height="8.57" style="fill:#fff;opacity:0.5"/><rect x="363.24" y="161.05" width="1.55" height="8.57" style="fill:#fff;opacity:0.5"/><rect x="368.58" y="161.05" width="1.55" height="8.57" style="fill:#fff;opacity:0.5"/><rect x="373.92" y="161.05" width="1.55" height="8.57" style="fill:#fff;opacity:0.5"/><rect x="379.26" y="161.05" width="1.55" height="8.57" style="fill:#fff;opacity:0.5"/><rect x="341.89" y="172.99" width="1.55" height="8.57" style="fill:#fff;opacity:0.5"/><rect x="347.23" y="172.99" width="1.55" height="8.57" style="fill:#fff;opacity:0.5"/><rect x="352.57" y="172.99" width="1.55" height="8.57" style="fill:#fff;opacity:0.5"/><rect x="357.9" y="172.99" width="1.55" height="8.57" style="fill:#fff;opacity:0.5"/><rect x="363.24" y="172.99" width="1.55" height="8.57" style="fill:#fff;opacity:0.5"/><rect x="368.58" y="172.99" width="1.55" height="8.57" style="fill:#fff;opacity:0.5"/><rect x="373.92" y="172.99" width="1.55" height="8.57" style="fill:#fff;opacity:0.5"/><rect x="379.26" y="172.99" width="1.55" height="8.57" style="fill:#fff;opacity:0.5"/><rect x="347.23" y="185.59" width="1.55" height="8.57" style="fill:#fff;opacity:0.5"/><rect x="352.57" y="185.59" width="1.55" height="8.57" style="fill:#fff;opacity:0.5"/><rect x="357.9" y="185.59" width="1.55" height="8.57" style="fill:#fff;opacity:0.5"/><rect x="363.24" y="185.59" width="1.55" height="8.57" style="fill:#fff;opacity:0.5"/><rect x="368.58" y="185.59" width="1.55" height="8.57" style="fill:#fff;opacity:0.5"/><rect x="373.92" y="185.59" width="1.55" height="8.57" style="fill:#fff;opacity:0.5"/><rect x="379.26" y="185.59" width="1.55" height="8.57" style="fill:#fff;opacity:0.5"/><rect x="429.08" y="158.46" width="3.66" height="9.28" style="fill:#fff;opacity:0.33"/><rect x="429.08" y="176.22" width="3.66" height="9.28" style="fill:#fff;opacity:0.33"/><rect x="429.08" y="193.97" width="3.66" height="9.28" style="fill:#fff;opacity:0.33"/><rect x="429.08" y="211.73" width="3.66" height="9.28" style="fill:#fff;opacity:0.33"/><rect x="429.08" y="228.47" width="3.66" height="9.28" style="fill:#fff;opacity:0.33"/><rect x="429.08" y="246.22" width="3.66" height="9.28" style="fill:#fff;opacity:0.33"/><rect x="444.78" y="158.46" width="3.66" height="9.28" style="fill:#fff;opacity:0.33"/><rect x="444.78" y="176.22" width="3.66" height="9.28" style="fill:#fff;opacity:0.33"/><rect x="444.78" y="193.97" width="3.66" height="9.28" style="fill:#fff;opacity:0.33"/><rect x="444.78" y="211.73" width="3.66" height="9.28" style="fill:#fff;opacity:0.33"/><rect x="444.78" y="228.47" width="3.66" height="9.28" style="fill:#fff;opacity:0.33"/><rect x="444.78" y="246.22" width="3.66" height="9.28" style="fill:#fff;opacity:0.33"/><rect x="460.47" y="158.46" width="3.66" height="9.28" style="fill:#fff;opacity:0.33"/><rect x="460.47" y="176.22" width="3.66" height="9.28" style="fill:#fff;opacity:0.33"/><rect x="460.47" y="193.97" width="3.66" height="9.28" style="fill:#fff;opacity:0.33"/><rect x="460.47" y="211.73" width="3.66" height="9.28" style="fill:#fff;opacity:0.33"/><rect x="460.47" y="228.47" width="3.66" height="9.28" style="fill:#fff;opacity:0.33"/><rect x="460.47" y="246.22" width="3.66" height="9.28" style="fill:#fff;opacity:0.33"/><rect x="476.16" y="158.46" width="3.66" height="9.28" style="fill:#fff;opacity:0.33"/><rect x="476.16" y="176.22" width="3.66" height="9.28" style="fill:#fff;opacity:0.33"/><rect x="476.16" y="193.97" width="3.66" height="9.28" style="fill:#fff;opacity:0.33"/><rect x="476.16" y="211.73" width="3.66" height="9.28" style="fill:#fff;opacity:0.33"/><rect x="476.16" y="228.47" width="3.66" height="9.28" style="fill:#fff;opacity:0.33"/><rect x="476.16" y="246.22" width="3.66" height="9.28" style="fill:#fff;opacity:0.33"/><rect x="370.13" y="29.01" width="3.05" height="8.12" style="fill:#fff;opacity:0.5"/><rect x="377.65" y="29.01" width="3.05" height="8.12" style="fill:#fff;opacity:0.5"/><rect x="385.16" y="29.01" width="3.05" height="8.12" style="fill:#fff;opacity:0.5"/><rect x="392.67" y="29.01" width="3.05" height="8.12" style="fill:#fff;opacity:0.5"/><rect x="370.13" y="42.54" width="3.05" height="8.12" style="fill:#fff;opacity:0.5"/><rect x="377.65" y="42.54" width="3.05" height="8.12" style="fill:#fff;opacity:0.5"/><rect x="385.16" y="42.54" width="3.05" height="8.12" style="fill:#fff;opacity:0.5"/><rect x="392.67" y="42.54" width="3.05" height="8.12" style="fill:#fff;opacity:0.5"/><rect x="370.13" y="56.07" width="3.05" height="8.12" style="fill:#fff;opacity:0.5"/><rect x="377.65" y="56.07" width="3.05" height="8.12" style="fill:#fff;opacity:0.5"/><rect x="401.2" y="29.01" width="3.05" height="8.12" style="fill:#fff;opacity:0.5"/><rect x="167.34" y="111.31" width="1.94" height="7.45" style="fill:#fff;opacity:0.4"/><rect x="174.17" y="111.31" width="1.94" height="7.45" style="fill:#fff;opacity:0.4"/><rect x="182.16" y="111.31" width="1.94" height="7.45" style="fill:#fff;opacity:0.4"/><rect x="189" y="111.31" width="1.94" height="7.45" style="fill:#fff;opacity:0.4"/><rect x="152.16" y="111.31" width="1.94" height="7.45" style="fill:#fff;opacity:0.4"/><rect x="158.99" y="111.31" width="1.94" height="7.45" style="fill:#fff;opacity:0.4"/><rect x="167.34" y="124.24" width="1.94" height="7.45" style="fill:#fff;opacity:0.4"/><rect x="174.17" y="124.24" width="1.94" height="7.45" style="fill:#fff;opacity:0.4"/><rect x="182.16" y="124.24" width="1.94" height="7.45" style="fill:#fff;opacity:0.4"/><rect x="189" y="124.24" width="1.94" height="7.45" style="fill:#fff;opacity:0.4"/><rect x="152.16" y="124.24" width="1.94" height="7.45" style="fill:#fff;opacity:0.4"/><rect x="158.99" y="124.24" width="1.94" height="7.45" style="fill:#fff;opacity:0.4"/><rect x="167.34" y="137.17" width="1.94" height="7.45" style="fill:#fff;opacity:0.4"/><rect x="174.17" y="137.17" width="1.94" height="7.45" style="fill:#fff;opacity:0.4"/><rect x="182.16" y="137.17" width="1.94" height="7.45" style="fill:#fff;opacity:0.4"/><rect x="189" y="137.17" width="1.94" height="7.45" style="fill:#fff;opacity:0.4"/><rect x="152.16" y="137.17" width="1.94" height="7.45" style="fill:#fff;opacity:0.4"/><rect x="158.99" y="137.17" width="1.94" height="7.45" style="fill:#fff;opacity:0.4"/><rect x="528.74" y="168.38" width="3" height="11.55" style="fill:#fff;opacity:0.5"/><rect x="537.92" y="168.38" width="3" height="11.55" style="fill:#fff;opacity:0.5"/><rect x="546.56" y="168.38" width="3" height="11.55" style="fill:#fff;opacity:0.5"/><rect x="735.49" y="170.78" width="2.28" height="6.49" style="fill:#fff;opacity:0.33"/><rect x="742.63" y="170.78" width="2.28" height="6.49" style="fill:#fff;opacity:0.33"/><rect x="735.49" y="170.78" width="2.28" height="6.49" style="fill:#fff;opacity:0.33"/><rect x="742.63" y="170.78" width="2.28" height="6.49" style="fill:#fff;opacity:0.33"/><rect x="749.37" y="170.78" width="2.28" height="6.49" style="fill:#fff;opacity:0.33"/><rect x="756.51" y="170.78" width="2.28" height="6.49" style="fill:#fff;opacity:0.33"/><rect x="735.49" y="182.43" width="2.28" height="6.49" style="fill:#fff;opacity:0.33"/><rect x="742.63" y="182.43" width="2.28" height="6.49" style="fill:#fff;opacity:0.33"/><rect x="735.49" y="182.43" width="2.28" height="6.49" style="fill:#fff;opacity:0.33"/><rect x="742.63" y="182.43" width="2.28" height="6.49" style="fill:#fff;opacity:0.33"/><rect x="749.37" y="182.43" width="2.28" height="6.49" style="fill:#fff;opacity:0.33"/><rect x="756.51" y="182.43" width="2.28" height="6.49" style="fill:#fff;opacity:0.33"/><rect x="735.49" y="194.83" width="2.28" height="6.49" style="fill:#fff;opacity:0.33"/><rect x="742.63" y="194.83" width="2.28" height="6.49" style="fill:#fff;opacity:0.33"/><rect x="735.49" y="194.83" width="2.28" height="6.49" style="fill:#fff;opacity:0.33"/><rect x="742.63" y="194.83" width="2.28" height="6.49" style="fill:#fff;opacity:0.33"/><rect x="749.37" y="194.83" width="2.28" height="6.49" style="fill:#fff;opacity:0.33"/><rect x="756.51" y="194.83" width="2.28" height="6.49" style="fill:#fff;opacity:0.33"/><rect x="764.31" y="170.78" width="2.28" height="6.49" style="fill:#fff;opacity:0.33"/><rect x="764.31" y="182.43" width="2.28" height="6.49" style="fill:#fff;opacity:0.33"/><rect x="771.45" y="170.78" width="2.28" height="6.49" style="fill:#fff;opacity:0.33"/><rect x="557.61" y="151.51" width="2.45" height="10.13" style="fill:#fff;opacity:0.33"/><rect x="569.79" y="151.51" width="2.45" height="10.13" style="fill:#fff;opacity:0.33"/><rect x="581.96" y="151.51" width="2.45" height="10.13" style="fill:#fff;opacity:0.33"/><rect x="594.13" y="151.51" width="2.45" height="10.13" style="fill:#fff;opacity:0.33"/><rect x="557.61" y="172.35" width="2.45" height="10.13" style="fill:#fff;opacity:0.33"/><rect x="569.79" y="172.35" width="2.45" height="10.13" style="fill:#fff;opacity:0.33"/><rect x="581.96" y="172.35" width="2.45" height="10.13" style="fill:#fff;opacity:0.33"/><rect x="594.13" y="172.35" width="2.45" height="10.13" style="fill:#fff;opacity:0.33"/><rect x="557.61" y="193.71" width="2.45" height="10.13" style="fill:#fff;opacity:0.33"/><rect x="569.79" y="193.71" width="2.45" height="10.13" style="fill:#fff;opacity:0.33"/><rect x="581.96" y="193.71" width="2.45" height="10.13" style="fill:#fff;opacity:0.33"/><rect x="594.13" y="193.71" width="2.45" height="10.13" style="fill:#fff;opacity:0.33"/><rect x="557.61" y="215.07" width="2.45" height="10.13" style="fill:#fff;opacity:0.33"/><rect x="569.79" y="215.07" width="2.45" height="10.13" style="fill:#fff;opacity:0.33"/><rect x="581.96" y="215.07" width="2.45" height="10.13" style="fill:#fff;opacity:0.33"/><rect x="594.13" y="215.07" width="2.45" height="10.13" style="fill:#fff;opacity:0.33"/><rect x="557.61" y="234.47" width="2.45" height="10.13" style="fill:#fff;opacity:0.33"/><rect x="569.79" y="234.47" width="2.45" height="10.13" style="fill:#fff;opacity:0.33"/><rect x="581.96" y="234.47" width="2.45" height="10.13" style="fill:#fff;opacity:0.33"/><rect x="557.61" y="256.11" width="2.45" height="10.13" style="fill:#fff;opacity:0.33"/><rect x="569.79" y="256.11" width="2.45" height="10.13" style="fill:#fff;opacity:0.33"/><rect x="581.96" y="256.11" width="2.45" height="10.13" style="fill:#fff;opacity:0.33"/><rect x="594.13" y="234.47" width="2.45" height="10.13" style="fill:#fff;opacity:0.33"/><rect x="834.36" y="205.04" width="2.5" height="5.81" style="fill:#fff;opacity:0.33"/><rect x="834.36" y="214.43" width="2.5" height="5.81" style="fill:#fff;opacity:0.33"/><rect x="840.78" y="205.04" width="2.5" height="5.81" style="fill:#fff;opacity:0.33"/></g></svg>